<?xml version="1.0" encoding="UTF-8" standalone="no"?> <svg xmlns="http://www.w3.org/2000/svg" viewBox="0 0 64 64"><g id="Layer_8" data-name="Layer 8"><path d="M31.42,37.6h-.16a3.15,3.15,0,0,0-3.14,3.14V48h6.44V40.74A3.15,3.15,0,0,0,31.42,37.6Z"/><path d="M18.41,26a.6.6,0,0,1-.6.6H15.08a.6.6,0,0,1-.6-.6V23.6H13.09V48h6.7V23.6H18.41Z"/><path d="M48.2,26a.6.6,0,0,1-.6.6H44.87a.6.6,0,0,1-.6-.6V23.6H42.88V48h6.7V23.6H48.2Z"/><path d="M32,3.4h0A28.59,28.59,0,0,0,3.4,32h0A28.59,28.59,0,0,0,32,60.6h0A28.59,28.59,0,0,0,60.6,32h0A28.59,28.59,0,0,0,32,3.4ZM50.78,48.58a.6.6,0,0,1-.6.6H12.49a.6.6,0,0,1-.6-.6V23a.6.6,0,0,1,.6-.6h2.59a.6.6,0,0,1,.6.6v2.41h1.53V23a.6.6,0,0,1,.6-.6h2.58a.6.6,0,0,1,.6.6v4.11h2.24V17.62a.6.6,0,0,1,.6-.6h1.68V10.89a.62.62,0,0,1,.8-.57l6.2,2.07a.61.61,0,0,1,.41.57.59.59,0,0,1-.41.57l-5.8,1.94V17h1.83a.6.6,0,0,1,.61.6v3.73h4.38V17.62a.6.6,0,0,1,.6-.6h1.58V10.89a.61.61,0,0,1,.79-.57l6.21,2.07a.62.62,0,0,1,.41.57.6.6,0,0,1-.41.57l-5.8,1.94V17h1.93a.6.6,0,0,1,.6.6v9.49h2.24V23a.6.6,0,0,1,.6-.6h2.59a.6.6,0,0,1,.6.6v2.41H47V23a.6.6,0,0,1,.6-.6h2.58a.6.6,0,0,1,.6.6Z"/><rect x="20.99" y="28.31" width="20.69" height="2.76"/></g></svg>